<svg width="512" height="512" viewBox="0 0 512 512" fill="none" xmlns="http://www.w3.org/2000/svg">
<path d="M256 48C176.5 48 112 109.39 112 185C112 272 208 409.87 243.25 457.49C244.713 459.5 246.631 461.136 248.847 462.264C251.063 463.391 253.514 463.979 256 463.979C258.486 463.979 260.937 463.391 263.153 462.264C265.369 461.136 267.287 459.5 268.75 457.49C304 409.89 400 272.07 400 185C400 109.39 335.5 48 256 48Z" fill="#111111" stroke="#111111" stroke-width="32" stroke-linecap="round" stroke-linejoin="round"/>
<path d="M256 240C282.51 240 304 218.51 304 192C304 165.49 282.51 144 256 144C229.49 144 208 165.49 208 192C208 218.51 229.49 240 256 240Z" fill="#111111" stroke="#111111" stroke-width="32" stroke-linecap="round" stroke-linejoin="round"/>
<path fill-rule="evenodd" clip-rule="evenodd" d="M248.761 315.867V288.372C199.342 284.889 159.441 243.747 159.441 192.433C159.441 141.119 199.342 99.9774 248.761 96.4946V69C184.387 72.5206 132 125.753 132 192.433C132 259.114 184.387 312.346 248.761 315.867ZM262.481 315.867C326.854 312.346 379.241 259.114 379.241 192.433C379.241 125.753 326.854 72.5206 262.481 69V103.416C272.138 104.15 281.367 106.42 289.922 109.983V102.55C326.102 116.365 351.8 151.398 351.8 192.433C351.8 233.468 326.103 268.5 289.923 282.316C289.923 241.206 289.922 200.1 289.922 158.99C282.728 151.613 273.174 146.548 262.481 145.015C262.481 201.966 262.481 258.916 262.481 315.867ZM296.782 263.901C317.961 251.684 332.861 230.531 336.943 206.153H308.914C306.677 214.872 302.435 222.609 296.782 228.961V263.901ZM255.621 247.451C225.501 247.451 200.602 223.086 200.602 192.433C200.602 159.021 229.902 133.786 262.481 137.838C284.832 140.618 303.317 156.906 308.914 178.713H336.943C330.723 141.573 299.893 113.337 262.481 110.255C215.003 106.346 173.161 143.514 173.161 192.433C173.161 238.981 211.045 274.887 255.621 274.891V247.451Z" fill="url(#paint0_linear_0_1)"/>
<defs>
<linearGradient id="paint0_linear_0_1" x1="262.48" y1="315.866" x2="262.49" y2="69" gradientUnits="userSpaceOnUse">
<stop stop-color="#E6B052"/>
<stop offset="0.501961" stop-color="#FFDF89"/>
<stop offset="1" stop-color="#AF8B49"/>
</linearGradient>
</defs>
</svg>
