<svg width="977" height="379" viewBox="0 0 977 379" fill="none" xmlns="http://www.w3.org/2000/svg">
<path d="M138.5 122L170.976 140.75V178.25L138.5 197L106.024 178.25V140.75L138.5 122Z" fill="url(#paint0_linear_0_1)" fill-opacity="0.06"/>
<path d="M171.5 183L203.976 201.75V239.25L171.5 258L139.024 239.25V201.75L171.5 183Z" fill="url(#paint1_linear_0_1)" fill-opacity="0.07"/>
<path d="M382.5 183L414.976 201.75V239.25L382.5 258L350.024 239.25V201.75L382.5 183Z" fill="url(#paint2_linear_0_1)" fill-opacity="0.07"/>
<path d="M312.5 62L344.976 80.75V118.25L312.5 137L280.024 118.25V80.75L312.5 62Z" fill="url(#paint3_linear_0_1)" fill-opacity="0.06"/>
<path d="M565.5 243L597.976 261.75V299.25L565.5 318L533.024 299.25V261.75L565.5 243Z" fill="url(#paint4_linear_0_1)" fill-opacity="0.08"/>
<path d="M840.5 243L872.976 261.75V299.25L840.5 318L808.024 299.25V261.75L840.5 243Z" fill="url(#paint5_linear_0_1)" fill-opacity="0.07"/>
<path d="M666.5 62L698.976 80.75V118.25L666.5 137L634.024 118.25V80.75L666.5 62Z" fill="url(#paint6_linear_0_1)" fill-opacity="0.05"/>
<path d="M771.5 122L803.976 140.75V178.25L771.5 197L739.024 178.25V140.75L771.5 122Z" fill="url(#paint7_linear_0_1)" fill-opacity="0.07"/>
<path d="M172.5 302L204.976 320.75V358.25L172.5 377L140.024 358.25V320.75L172.5 302Z" fill="url(#paint8_linear_0_1)" fill-opacity="0.07"/>
<path d="M842.5 123L874.976 141.75V179.25L842.5 198L810.024 179.25V141.75L842.5 123Z" fill="url(#paint9_linear_0_1)" fill-opacity="0.08"/>
<path d="M528.5 183L560.976 201.75V239.25L528.5 258L496.024 239.25V201.75L528.5 183Z" fill="url(#paint10_linear_0_1)" fill-opacity="0.05"/>
<path d="M69.5 243L101.976 261.75V299.25L69.5 318L37.024 299.25V261.75L69.5 243Z" fill="url(#paint11_linear_0_1)" fill-opacity="0.05"/>
<path d="M71.524 82.1934L101.5 64.8868L131.476 82.1934V116.807L101.5 134.113L71.524 116.807V82.1934Z" stroke="url(#paint12_linear_0_1)" stroke-opacity="0.05" stroke-width="5"/>
<path d="M177.524 143.193L207.5 125.887L237.476 143.193V177.807L207.5 195.113L177.524 177.807V143.193Z" stroke="url(#paint13_linear_0_1)" stroke-opacity="0.08" stroke-width="5"/>
<path d="M247.524 143.193L277.5 125.887L307.476 143.193V177.807L277.5 195.113L247.524 177.807V143.193Z" stroke="url(#paint14_linear_0_1)" stroke-opacity="0.07" stroke-width="5"/>
<path d="M282.524 203.193L312.5 185.887L342.476 203.193V237.807L312.5 255.113L282.524 237.807V203.193Z" stroke="url(#paint15_linear_0_1)" stroke-opacity="0.06" stroke-width="5"/>
<path d="M247.524 264.193L277.5 246.887L307.476 264.193V298.807L277.5 316.113L247.524 298.807V264.193Z" stroke="url(#paint16_linear_0_1)" stroke-opacity="0.05" stroke-width="5"/>
<path d="M392.524 143.193L422.5 125.887L452.476 143.193V177.807L422.5 195.113L392.524 177.807V143.193Z" stroke="url(#paint17_linear_0_1)" stroke-opacity="0.08" stroke-width="5"/>
<path d="M461.524 143.193L491.5 125.887L521.476 143.193V177.807L491.5 195.113L461.524 177.807V143.193Z" stroke="url(#paint18_linear_0_1)" stroke-opacity="0.06" stroke-width="5"/>
<path d="M427.524 82.1934L457.5 64.8868L487.476 82.1934V116.807L457.5 134.113L427.524 116.807V82.1934Z" stroke="url(#paint19_linear_0_1)" stroke-opacity="0.07" stroke-width="5"/>
<path d="M71.524 322.193L101.5 304.887L131.476 322.193V356.807L101.5 374.113L71.524 356.807V322.193Z" stroke="url(#paint20_linear_0_1)" stroke-opacity="0.08" stroke-width="5"/>
<path d="M604.524 143.193L634.5 125.887L664.476 143.193V177.807L634.5 195.113L604.524 177.807V143.193Z" stroke="url(#paint21_linear_0_1)" stroke-opacity="0.06" stroke-width="5"/>
<path d="M673.524 142.193L703.5 124.887L733.476 142.193V176.807L703.5 194.113L673.524 176.807V142.193Z" stroke="url(#paint22_linear_0_1)" stroke-opacity="0.06" stroke-width="5"/>
<path d="M774.524 203.193L804.5 185.887L834.476 203.193V237.807L804.5 255.113L774.524 237.807V203.193Z" stroke="url(#paint23_linear_0_1)" stroke-opacity="0.06" stroke-width="5"/>
<path d="M642.524 203.193L672.5 185.887L702.476 203.193V237.807L672.5 255.113L642.524 237.807V203.193Z" stroke="url(#paint24_linear_0_1)" stroke-opacity="0.07" stroke-width="5"/>
<path d="M498.524 324.193L528.5 306.887L558.476 324.193V358.807L528.5 376.113L498.524 358.807V324.193Z" stroke="url(#paint25_linear_0_1)" stroke-opacity="0.07" stroke-width="5"/>
<path d="M778.524 82.1934L808.5 64.8868L838.476 82.1934V116.807L808.5 134.113L778.524 116.807V82.1934Z" stroke="url(#paint26_linear_0_1)" stroke-opacity="0.06" stroke-width="5"/>
<path d="M847.524 82.1934L877.5 64.8868L907.476 82.1934V116.807L877.5 134.113L847.524 116.807V82.1934Z" stroke="url(#paint27_linear_0_1)" stroke-opacity="0.07" stroke-width="5"/>
<path d="M878.524 263.193L908.5 245.887L938.476 263.193V297.807L908.5 315.113L878.524 297.807V263.193Z" stroke="url(#paint28_linear_0_1)" stroke-opacity="0.08" stroke-width="5"/>
<path d="M914.524 205.193L944.5 187.887L974.476 205.193V239.807L944.5 257.113L914.524 239.807V205.193Z" stroke="url(#paint29_linear_0_1)" stroke-opacity="0.07" stroke-width="5"/>
<path d="M809.524 20.1934L839.5 2.88675L869.476 20.1934V54.8066L839.5 72.1133L809.524 54.8066V20.1934Z" stroke="url(#paint30_linear_0_1)" stroke-opacity="0.05" stroke-width="5"/>
<path d="M568.524 203.193L598.5 185.887L628.476 203.193V237.807L598.5 255.113L568.524 237.807V203.193Z" stroke="url(#paint31_linear_0_1)" stroke-opacity="0.07" stroke-width="5"/>
<path d="M466.524 264.193L496.5 246.887L526.476 264.193V298.807L496.5 316.113L466.524 298.807V264.193Z" stroke="url(#paint32_linear_0_1)" stroke-opacity="0.06" stroke-width="5"/>
<path d="M2.52405 205.193L32.5 187.887L62.476 205.193V239.807L32.5 257.113L2.52405 239.807V205.193Z" stroke="url(#paint33_linear_0_1)" stroke-opacity="0.06" stroke-width="5"/>
<path d="M107.524 263.193L137.5 245.887L167.476 263.193V297.807L137.5 315.113L107.524 297.807V263.193Z" stroke="url(#paint34_linear_0_1)" stroke-opacity="0.06" stroke-width="5"/>
<defs>
<linearGradient id="paint0_linear_0_1" x1="176" y1="113" x2="101" y2="205" gradientUnits="userSpaceOnUse">
<stop stop-color="#DFBE6A" stop-opacity="0.87451"/>
<stop offset="0.489318" stop-color="#926F34" stop-opacity="0.83"/>
<stop offset="0.95" stop-color="#DFBE6A"/>
</linearGradient>
<linearGradient id="paint1_linear_0_1" x1="209" y1="174" x2="134" y2="266" gradientUnits="userSpaceOnUse">
<stop stop-color="#DFBE6A" stop-opacity="0.87451"/>
<stop offset="0.489318" stop-color="#926F34" stop-opacity="0.83"/>
<stop offset="0.95" stop-color="#DFBE6A"/>
</linearGradient>
<linearGradient id="paint2_linear_0_1" x1="420" y1="174" x2="345" y2="266" gradientUnits="userSpaceOnUse">
<stop stop-color="#DFBE6A" stop-opacity="0.87451"/>
<stop offset="0.489318" stop-color="#926F34" stop-opacity="0.83"/>
<stop offset="0.95" stop-color="#DFBE6A"/>
</linearGradient>
<linearGradient id="paint3_linear_0_1" x1="350" y1="53" x2="275" y2="145" gradientUnits="userSpaceOnUse">
<stop stop-color="#DFBE6A" stop-opacity="0.87451"/>
<stop offset="0.489318" stop-color="#926F34" stop-opacity="0.83"/>
<stop offset="0.95" stop-color="#DFBE6A"/>
</linearGradient>
<linearGradient id="paint4_linear_0_1" x1="603" y1="234" x2="528" y2="326" gradientUnits="userSpaceOnUse">
<stop stop-color="#DFBE6A" stop-opacity="0.87451"/>
<stop offset="0.489318" stop-color="#926F34" stop-opacity="0.83"/>
<stop offset="0.95" stop-color="#DFBE6A"/>
</linearGradient>
<linearGradient id="paint5_linear_0_1" x1="878" y1="234" x2="803" y2="326" gradientUnits="userSpaceOnUse">
<stop stop-color="#DFBE6A" stop-opacity="0.87451"/>
<stop offset="0.489318" stop-color="#926F34" stop-opacity="0.83"/>
<stop offset="0.95" stop-color="#DFBE6A"/>
</linearGradient>
<linearGradient id="paint6_linear_0_1" x1="704" y1="53" x2="629" y2="145" gradientUnits="userSpaceOnUse">
<stop stop-color="#DFBE6A" stop-opacity="0.87451"/>
<stop offset="0.489318" stop-color="#926F34" stop-opacity="0.83"/>
<stop offset="0.95" stop-color="#DFBE6A"/>
</linearGradient>
<linearGradient id="paint7_linear_0_1" x1="809" y1="113" x2="734" y2="205" gradientUnits="userSpaceOnUse">
<stop stop-color="#DFBE6A" stop-opacity="0.87451"/>
<stop offset="0.489318" stop-color="#926F34" stop-opacity="0.83"/>
<stop offset="0.95" stop-color="#DFBE6A"/>
</linearGradient>
<linearGradient id="paint8_linear_0_1" x1="210" y1="293" x2="135" y2="385" gradientUnits="userSpaceOnUse">
<stop stop-color="#DFBE6A" stop-opacity="0.87451"/>
<stop offset="0.489318" stop-color="#926F34" stop-opacity="0.83"/>
<stop offset="0.95" stop-color="#DFBE6A"/>
</linearGradient>
<linearGradient id="paint9_linear_0_1" x1="880" y1="114" x2="805" y2="206" gradientUnits="userSpaceOnUse">
<stop stop-color="#DFBE6A" stop-opacity="0.87451"/>
<stop offset="0.489318" stop-color="#926F34" stop-opacity="0.83"/>
<stop offset="0.95" stop-color="#DFBE6A"/>
</linearGradient>
<linearGradient id="paint10_linear_0_1" x1="566" y1="174" x2="491" y2="266" gradientUnits="userSpaceOnUse">
<stop stop-color="#DFBE6A" stop-opacity="0.87451"/>
<stop offset="0.489318" stop-color="#926F34" stop-opacity="0.83"/>
<stop offset="0.95" stop-color="#DFBE6A"/>
</linearGradient>
<linearGradient id="paint11_linear_0_1" x1="107" y1="234" x2="32" y2="326" gradientUnits="userSpaceOnUse">
<stop stop-color="#DFBE6A" stop-opacity="0.87451"/>
<stop offset="0.489318" stop-color="#926F34" stop-opacity="0.83"/>
<stop offset="0.95" stop-color="#DFBE6A"/>
</linearGradient>
<linearGradient id="paint12_linear_0_1" x1="101.5" y1="62" x2="101.5" y2="137" gradientUnits="userSpaceOnUse">
<stop stop-color="#926F34"/>
<stop offset="0.5" stop-color="#DFBE6A"/>
<stop offset="1" stop-color="#926F34"/>
</linearGradient>
<linearGradient id="paint13_linear_0_1" x1="207.5" y1="123" x2="207.5" y2="198" gradientUnits="userSpaceOnUse">
<stop stop-color="#926F34"/>
<stop offset="0.5" stop-color="#DFBE6A"/>
<stop offset="1" stop-color="#926F34"/>
</linearGradient>
<linearGradient id="paint14_linear_0_1" x1="277.5" y1="123" x2="277.5" y2="198" gradientUnits="userSpaceOnUse">
<stop stop-color="#926F34"/>
<stop offset="0.5" stop-color="#DFBE6A"/>
<stop offset="1" stop-color="#926F34"/>
</linearGradient>
<linearGradient id="paint15_linear_0_1" x1="312.5" y1="183" x2="312.5" y2="258" gradientUnits="userSpaceOnUse">
<stop stop-color="#926F34"/>
<stop offset="0.5" stop-color="#DFBE6A"/>
<stop offset="1" stop-color="#926F34"/>
</linearGradient>
<linearGradient id="paint16_linear_0_1" x1="277.5" y1="244" x2="277.5" y2="319" gradientUnits="userSpaceOnUse">
<stop stop-color="#926F34"/>
<stop offset="0.5" stop-color="#DFBE6A"/>
<stop offset="1" stop-color="#926F34"/>
</linearGradient>
<linearGradient id="paint17_linear_0_1" x1="422.5" y1="123" x2="422.5" y2="198" gradientUnits="userSpaceOnUse">
<stop stop-color="#926F34"/>
<stop offset="0.5" stop-color="#DFBE6A"/>
<stop offset="1" stop-color="#926F34"/>
</linearGradient>
<linearGradient id="paint18_linear_0_1" x1="491.5" y1="123" x2="491.5" y2="198" gradientUnits="userSpaceOnUse">
<stop stop-color="#926F34"/>
<stop offset="0.5" stop-color="#DFBE6A"/>
<stop offset="1" stop-color="#926F34"/>
</linearGradient>
<linearGradient id="paint19_linear_0_1" x1="457.5" y1="62" x2="457.5" y2="137" gradientUnits="userSpaceOnUse">
<stop stop-color="#926F34"/>
<stop offset="0.5" stop-color="#DFBE6A"/>
<stop offset="1" stop-color="#926F34"/>
</linearGradient>
<linearGradient id="paint20_linear_0_1" x1="101.5" y1="302" x2="101.5" y2="377" gradientUnits="userSpaceOnUse">
<stop stop-color="#926F34"/>
<stop offset="0.5" stop-color="#DFBE6A"/>
<stop offset="1" stop-color="#926F34"/>
</linearGradient>
<linearGradient id="paint21_linear_0_1" x1="634.5" y1="123" x2="634.5" y2="198" gradientUnits="userSpaceOnUse">
<stop stop-color="#926F34"/>
<stop offset="0.5" stop-color="#DFBE6A"/>
<stop offset="1" stop-color="#926F34"/>
</linearGradient>
<linearGradient id="paint22_linear_0_1" x1="703.5" y1="122" x2="703.5" y2="197" gradientUnits="userSpaceOnUse">
<stop stop-color="#926F34"/>
<stop offset="0.5" stop-color="#DFBE6A"/>
<stop offset="1" stop-color="#926F34"/>
</linearGradient>
<linearGradient id="paint23_linear_0_1" x1="804.5" y1="183" x2="804.5" y2="258" gradientUnits="userSpaceOnUse">
<stop stop-color="#926F34"/>
<stop offset="0.5" stop-color="#DFBE6A"/>
<stop offset="1" stop-color="#926F34"/>
</linearGradient>
<linearGradient id="paint24_linear_0_1" x1="672.5" y1="183" x2="672.5" y2="258" gradientUnits="userSpaceOnUse">
<stop stop-color="#926F34"/>
<stop offset="0.5" stop-color="#DFBE6A"/>
<stop offset="1" stop-color="#926F34"/>
</linearGradient>
<linearGradient id="paint25_linear_0_1" x1="528.5" y1="304" x2="528.5" y2="379" gradientUnits="userSpaceOnUse">
<stop stop-color="#926F34"/>
<stop offset="0.5" stop-color="#DFBE6A"/>
<stop offset="1" stop-color="#926F34"/>
</linearGradient>
<linearGradient id="paint26_linear_0_1" x1="808.5" y1="62" x2="808.5" y2="137" gradientUnits="userSpaceOnUse">
<stop stop-color="#926F34"/>
<stop offset="0.5" stop-color="#DFBE6A"/>
<stop offset="1" stop-color="#926F34"/>
</linearGradient>
<linearGradient id="paint27_linear_0_1" x1="877.5" y1="62" x2="877.5" y2="137" gradientUnits="userSpaceOnUse">
<stop stop-color="#926F34"/>
<stop offset="0.5" stop-color="#DFBE6A"/>
<stop offset="1" stop-color="#926F34"/>
</linearGradient>
<linearGradient id="paint28_linear_0_1" x1="908.5" y1="243" x2="908.5" y2="318" gradientUnits="userSpaceOnUse">
<stop stop-color="#926F34"/>
<stop offset="0.5" stop-color="#DFBE6A"/>
<stop offset="1" stop-color="#926F34"/>
</linearGradient>
<linearGradient id="paint29_linear_0_1" x1="944.5" y1="185" x2="944.5" y2="260" gradientUnits="userSpaceOnUse">
<stop stop-color="#926F34"/>
<stop offset="0.5" stop-color="#DFBE6A"/>
<stop offset="1" stop-color="#926F34"/>
</linearGradient>
<linearGradient id="paint30_linear_0_1" x1="839.5" y1="0" x2="839.5" y2="75" gradientUnits="userSpaceOnUse">
<stop stop-color="#926F34"/>
<stop offset="0.5" stop-color="#DFBE6A"/>
<stop offset="1" stop-color="#926F34"/>
</linearGradient>
<linearGradient id="paint31_linear_0_1" x1="598.5" y1="183" x2="598.5" y2="258" gradientUnits="userSpaceOnUse">
<stop stop-color="#926F34"/>
<stop offset="0.5" stop-color="#DFBE6A"/>
<stop offset="1" stop-color="#926F34"/>
</linearGradient>
<linearGradient id="paint32_linear_0_1" x1="496.5" y1="244" x2="496.5" y2="319" gradientUnits="userSpaceOnUse">
<stop stop-color="#926F34"/>
<stop offset="0.5" stop-color="#DFBE6A"/>
<stop offset="1" stop-color="#926F34"/>
</linearGradient>
<linearGradient id="paint33_linear_0_1" x1="32.5" y1="185" x2="32.5" y2="260" gradientUnits="userSpaceOnUse">
<stop stop-color="#926F34"/>
<stop offset="0.5" stop-color="#DFBE6A"/>
<stop offset="1" stop-color="#926F34"/>
</linearGradient>
<linearGradient id="paint34_linear_0_1" x1="137.5" y1="243" x2="137.5" y2="318" gradientUnits="userSpaceOnUse">
<stop stop-color="#926F34"/>
<stop offset="0.5" stop-color="#DFBE6A"/>
<stop offset="1" stop-color="#926F34"/>
</linearGradient>
</defs>
</svg>
