<?xml version="1.0" encoding="UTF-8" standalone="no"?>
<!-- Created with Inkscape (http://www.inkscape.org/) -->

<svg
   width="203.51318mm"
   height="101.1792mm"
   viewBox="0 0 203.51318 101.1792"
   version="1.1"
   id="svg1"
   xml:space="preserve"
   inkscape:version="1.3 (0e150ed6c4, 2023-07-21)"
   sodipodi:docname="carbon-care-logo.svg"
   xmlns:inkscape="http://www.inkscape.org/namespaces/inkscape"
   xmlns:sodipodi="http://sodipodi.sourceforge.net/DTD/sodipodi-0.dtd"
   xmlns="http://www.w3.org/2000/svg"
   xmlns:svg="http://www.w3.org/2000/svg"><sodipodi:namedview
     id="namedview1"
     pagecolor="#ffffff"
     bordercolor="#000000"
     borderopacity="0.25"
     inkscape:showpageshadow="2"
     inkscape:pageopacity="0.0"
     inkscape:pagecheckerboard="0"
     inkscape:deskcolor="#d1d1d1"
     inkscape:document-units="mm"
     inkscape:zoom="0.65260559"
     inkscape:cx="186.94293"
     inkscape:cy="661.19568"
     inkscape:window-width="2400"
     inkscape:window-height="1261"
     inkscape:window-x="-9"
     inkscape:window-y="-9"
     inkscape:window-maximized="1"
     inkscape:current-layer="Layer_x0020_1" /><defs
     id="defs1">
     <style type="text/css" 
       id="style1">
    
   &#10;  </style>
   
   <linearGradient
       id="id0"
       gradientUnits="userSpaceOnUse"
       x1="14152.43"
       y1="12335.68"
       x2="14152.7"
       y2="5804.0098">&#10;   <stop
   offset="0"
   style="stop-opacity:1; stop-color:#E6B052"
   id="stop1" />&#10;   <stop
   offset="0.501961"
   style="stop-opacity:1; stop-color:#FFDF89"
   id="stop2" />&#10;   <stop
   offset="1"
   style="stop-opacity:1; stop-color:#AF8B49"
   id="stop3" />&#10;  </linearGradient><style
       type="text/css"
       id="style1-5">&#10;   <![CDATA[
    .fil0 {fill:white}
    .fil2 {fill:#99783D;fill-rule:nonzero}
    .fil1 {fill:url(#id0)}
   ]]>&#10;  </style><linearGradient
       id="id0-3"
       gradientUnits="userSpaceOnUse"
       x1="14152.43"
       y1="12335.68"
       x2="14152.7"
       y2="5804.0098">&#10;   <stop
   offset="0"
   style="stop-opacity:1; stop-color:#E6B052"
   id="stop1-2" />&#10;   <stop
   offset="0.501961"
   style="stop-opacity:1; stop-color:#FFDF89"
   id="stop2-9" />&#10;   <stop
   offset="1"
   style="stop-opacity:1; stop-color:#AF8B49"
   id="stop3-7" />&#10;  </linearGradient></defs><g
     inkscape:label="Warstwa 1"
     inkscape:groupmode="layer"
     id="layer1"><g
       style="clip-rule:evenodd;fill-rule:evenodd;image-rendering:optimizeQuality;shape-rendering:geometricPrecision;text-rendering:geometricPrecision"
       id="g1"
       transform="matrix(0.01,0,0,0.01,-37.127199,12.258835)"><g
         id="Layer_x0020_1"
         inkscape:label="Layer 1"
         inkscape:groupmode="layer">&#10;  <metadata
   id="CorelCorpID_0Corel-Layer" />&#10;  &#10;  <g
   id="_2396239798704"
   transform="translate(-81.085222,-6973.3287)">&#10;   <path
   class="fil1"
   d="m 13789.44,12335.69 v -727.46 c -1307.53,-92.16 -2363.25,-1180.71 -2363.25,-2538.38 0,-1357.68 1055.72,-2446.23 2363.25,-2538.38 v -727.46 c -1703.21,93.15 -3089.29,1501.59 -3089.29,3265.84 0,1764.25 1386.08,3172.68 3089.29,3265.84 z m 363.02,0 c 1703.19,-93.16 3089.27,-1501.59 3089.27,-3265.84 0,-1764.25 -1386.08,-3172.69 -3089.27,-3265.84 v 910.58 c 255.52,19.42 499.69,79.49 726.03,173.76 v -196.66 c 957.28,365.53 1637.21,1292.44 1637.21,2378.16 0,1085.7 -679.91,2012.6 -1637.18,2378.14 0,-1087.69 -0.03,-2175.3 -0.03,-3262.99 -190.33,-195.19 -443.1,-329.2 -726.03,-369.77 0,1506.84 0,3013.65 0,4520.46 z m 907.55,-1374.93 c 560.35,-323.23 954.58,-882.91 1062.6,-1527.9 h -741.6 c -59.21,230.67 -171.43,435.39 -321,603.45 z m -1089.06,-435.24 c -796.92,0 -1455.71,-644.66 -1455.71,-1455.67 0,-884.04 775.24,-1551.7 1637.22,-1444.49 591.36,73.55 1080.44,504.5 1228.55,1081.47 h 741.6 c -164.57,-982.65 -980.28,-1729.75 -1970.15,-1811.27 -1256.2,-103.45 -2363.25,879.96 -2363.25,2174.29 0,1231.58 1002.34,2181.58 2181.74,2181.68 z"
   id="path3"
   style="fill:url(#id0-3)" />&#10;   <path
   class="fil2"
   d="m 5663.25,14104.53 c 0,68.43 -9.87,123.24 -28.98,164.98 -23.54,50.76 -66.13,95.7 -127.36,134.55 -47.22,28.98 -97.13,49 -149.01,60.05 -40.29,8.11 -91.38,12.17 -153.39,12.17 -7.26,0 -12.76,0 -16.55,0 -20.87,0 -40.03,0 -57.43,0 -17.4,0 -32.78,0 -46.38,0 -7.53,0 -12.76,0 -16.55,0 h -617.38 c -98.57,0 -176.02,-6.94 -232.87,-20.61 -71.04,-17.4 -140.05,-50.76 -206.44,-100.01 -55.67,-40.89 -92.83,-118.01 -111.08,-231.44 -9.87,-60.9 -15.11,-147.31 -15.11,-258.64 v -224.5 c 0,-115.98 8.7,-208.21 26.1,-276.64 22.9,-90.46 63.52,-157.45 121.8,-201.21 51.03,-38.33 129.65,-65.28 235.49,-80.91 63.78,-9.03 133.38,-13.68 208.21,-13.68 h 662.32 c 46.7,0 97.46,3.21 151.95,9.62 91.38,10.99 153.14,26.95 185.06,47.82 64.63,44.94 109.3,97.73 133.96,158.95 21.13,52.2 31.6,120.04 31.6,204.16 v 90.47 H 5229.1 c 0.92,-5.57 1.51,-13.94 1.51,-24.99 0,-20.87 -3.53,-41.48 -10.47,-61.16 -6.67,-19.69 -15.63,-37.68 -26.69,-53.64 -10.72,-15.96 -32.18,-26.95 -64.36,-32.51 -31.93,-5.5 -67.84,-8.12 -107.87,-8.12 h -450.63 c -14.53,0 -26.69,0 -36.83,0 -29.31,0 -55.67,1.77 -79.48,5.5 -23.75,3.79 -44.68,11.32 -62.93,23.22 -51.02,33.95 -76.53,82.36 -76.53,145.61 v 333.48 c 0,42.06 3.14,75.09 9.55,99.43 6.34,24.07 20.28,49.58 42.32,76.01 14.52,17.4 39.45,32.44 74.57,44.61 35.06,12.5 65.48,18.58 91.06,18.58 h 501.07 c 31,0 60.31,-4.06 88.17,-12.17 27.8,-8.44 51.03,-19.43 69.28,-33.03 42.06,-31.92 62.92,-76.27 62.92,-132.86 0,-6.34 -0.85,-15.96 -2.61,-28.71 h 412.1 z m 2242.18,371.75 h -483.14 l -140.9,-250.54 h -881.58 l -130.24,250.54 h -470.91 l 777.77,-1407.64 h 554.11 z m -789.67,-546.34 -276.63,-520.23 -287.36,520.23 z m 2598.36,546.34 h -424.27 v -250.54 c 0,-37.41 -16.49,-68.74 -49.26,-94.52 -24.66,-18.31 -53.38,-27.28 -86.15,-27.28 h -706.4 v 372.34 l -417.6,-1.44 v -1406.2 H 9293.9 c 63.85,0 115.46,3.8 154.57,11.65 39.45,7.78 79.15,26.36 119.19,55.34 97.73,71.36 146.46,169.09 146.46,293.51 v 205.33 c 0,50.44 -5.82,93.09 -17.66,128.15 -11.91,35.06 -34.28,64.1 -67.05,87 -24.6,16.55 -58.55,33.03 -101.46,49.32 -36.56,13.6 -59.2,20.54 -68.42,20.54 18.25,0 48.4,9.61 90.47,28.72 53.9,24.66 92.23,53.05 114.8,84.97 19.16,27.27 32.18,53.96 39.18,80.06 6.67,25.78 10.14,57.11 10.14,93.68 z m -406.55,-833.7 v -104.4 c 0,-25.84 -1.76,-45.85 -5.56,-60.64 -3.46,-14.45 -12.16,-29.3 -25.77,-43.76 -13.93,-14.78 -29.31,-24.07 -46.71,-28.45 -17.4,-4.06 -39.11,-6.09 -65.54,-6.09 h -715.95 v 374.1 h 692.47 c 40.29,0 67.57,-2.61 82.35,-7.52 14.52,-4.97 28.98,-14.78 43.83,-29.56 27.21,-26.69 40.88,-57.77 40.88,-93.68 z m 2376.74,474.97 c 0,53.05 -5.23,96.03 -15.11,128.73 -12.76,42.07 -36.5,81.84 -71.3,119.78 -34.8,38 -81.77,65.87 -141.56,83.53 -59.98,17.73 -133.96,26.69 -222.66,26.69 H 9893.61 v -1407.64 h 1211.59 c 51.03,0 106.69,3.8 167,11.06 94.85,11.9 161.84,29.57 201.28,53.38 55.67,35.65 96.29,80.32 121.8,134.23 22.63,48.4 34.21,103.55 34.21,165.56 v 63.25 c 0,37.42 -2.35,65.22 -6.93,83.54 -8.18,33.62 -26.1,65.21 -53.38,94.52 -20.02,21.71 -51.61,43.17 -94.52,64.1 -31.92,15.64 -54.82,24.6 -68.49,27.54 21.19,0 50.76,6.94 89.03,20.54 31.92,11.06 62.66,26.69 91.64,47.3 29.31,20.27 52.79,51.02 70.52,91.64 17.92,40.62 26.95,88.18 26.95,142.99 z m -487.46,-612.47 c 0,-41.14 -20.61,-71.04 -61.49,-89.29 -24.66,-11.05 -51.35,-16.55 -79.48,-16.55 h -732.5 l -1.44,236.67 h 733.94 c 23.81,0 42.91,-1.77 57.43,-5.56 14.53,-3.73 29.31,-11.84 44.35,-24.59 15.12,-13.09 25.52,-27.02 31.08,-42.07 5.49,-15.11 8.11,-34.53 8.11,-58.61 z m 57.37,518.21 c 0,-49.26 -19.11,-82.36 -57.37,-98.84 -11.91,-5.56 -27.87,-9.03 -47.89,-11.05 -20.01,-1.71 -31.85,-2.62 -35.65,-2.62 h -791.37 v 234.9 h 791.37 c 30.16,0 51.62,-2.03 64.37,-6.08 12.76,-4.32 24.66,-11.32 35.65,-21.46 27.28,-22.9 40.89,-54.49 40.89,-94.85 z m 2532.15,-184.99 c 0,131.35 -4.57,223.85 -13.6,277.81 -19.1,114.28 -61.16,196.9 -126.12,247.92 -49.32,38.33 -112.84,66.72 -190.81,84.97 -78.04,18.32 -163.6,27.28 -256.68,27.28 h -798.05 c -91.32,0 -166.15,-7.85 -224.69,-23.22 -70.19,-18.25 -137.77,-52.46 -202.46,-102.64 -44.94,-34.8 -75.94,-96.55 -93.08,-184.99 -11.91,-61.22 -17.99,-138.61 -17.99,-232.87 0,-15.37 0,-30.48 0,-44.94 0,-14.78 0.59,-29.04 1.44,-42.65 v -171.12 c 0,-113.1 5.56,-198.92 16.55,-257.47 20.86,-114.86 64.36,-199.25 129.91,-253.15 53.05,-42.91 115.13,-70.78 186.17,-83.53 42.06,-7.26 114.53,-11.06 217.82,-11.06 h 756.84 c 105.84,0 184.46,4.98 235.49,15.11 73.91,14.53 143.25,45.53 208.21,93.09 70.19,51.94 118.59,124.68 144.95,217.76 17.4,60.31 26.1,134.56 26.1,222.99 0,16.55 0,29.05 0,37.75 0,8.7 0,14.78 0,18.51 z m -470.91,112.51 v -367.69 c 0,-30.15 -4.32,-56.84 -13.02,-80.33 -8.7,-23.22 -23.22,-43.5 -43.82,-60.9 -20.61,-17.4 -43.5,-28.97 -69.01,-34.53 -25.52,-5.5 -57.11,-8.12 -94.53,-8.12 h -542.01 c -14.79,0 -26.69,0 -35.65,0 -37.42,0 -66.99,2.62 -88.44,7.53 -21.46,4.97 -39.45,12.49 -53.97,22.63 -31,20.02 -52.46,48.14 -64.37,83.79 -8.11,25.58 -12.49,62.67 -12.49,111.08 v 288.27 c 0,57.44 2.94,96.29 8.44,115.72 5.49,19.69 16.81,39.71 34.21,59.72 13.61,16.55 39.44,30.16 77.45,41.15 37.68,11.05 70.45,16.55 97.73,16.55 h 581.72 c 66.66,0 118.59,-14.2 156.01,-42.59 22.9,-17.4 38.86,-38.33 48.15,-62.92 8.96,-24.99 13.6,-54.56 13.6,-89.36 z m 2557.74,525.47 h -654.53 l -814.6,-1016.99 v 1016.99 h -439.31 v -1407.64 h 668.13 l 823.88,1031.25 v -1031.25 h 416.43 z m 2410.36,-371.75 c 0,68.43 -9.88,123.24 -28.98,164.98 -23.55,50.76 -66.14,95.7 -127.36,134.55 -47.23,28.98 -97.14,49 -149.01,60.05 -40.3,8.11 -91.39,12.17 -153.4,12.17 -7.26,0 -12.75,0 -16.55,0 -20.87,0 -40.03,0 -57.43,0 -17.4,0 -32.77,0 -46.38,0 -7.52,0 -12.76,0 -16.55,0 h -617.37 c -98.58,0 -176.03,-6.94 -232.88,-20.61 -71.03,-17.4 -140.05,-50.76 -206.44,-100.01 -55.67,-40.89 -92.82,-118.01 -111.07,-231.44 -9.88,-60.9 -15.11,-147.31 -15.11,-258.64 v -224.5 c 0,-115.98 8.7,-208.21 26.1,-276.64 22.89,-90.46 63.51,-157.45 121.8,-201.21 51.02,-38.33 129.65,-65.28 235.49,-80.91 63.77,-9.03 133.37,-13.68 208.21,-13.68 h 662.31 c 46.7,0 97.47,3.21 151.96,9.62 91.38,10.99 153.13,26.95 185.05,47.82 64.63,44.94 109.31,97.73 133.97,158.95 21.13,52.2 31.59,120.04 31.59,204.16 v 90.47 h -412.1 c 0.91,-5.57 1.5,-13.94 1.5,-24.99 0,-20.87 -3.53,-41.48 -10.47,-61.16 -6.67,-19.69 -15.63,-37.68 -26.68,-53.64 -10.73,-15.96 -32.19,-26.95 -64.37,-32.51 -31.92,-5.5 -67.83,-8.12 -107.87,-8.12 h -450.63 c -14.52,0 -26.69,0 -36.83,0 -29.31,0 -55.67,1.77 -79.48,5.5 -23.74,3.79 -44.67,11.32 -62.93,23.22 -51.02,33.95 -76.53,82.36 -76.53,145.61 v 333.48 c 0,42.06 3.14,75.09 9.55,99.43 6.35,24.07 20.28,49.58 42.32,76.01 14.53,17.4 39.45,32.44 74.58,44.61 35.06,12.5 65.47,18.58 91.05,18.58 h 501.07 c 31,0 60.31,-4.06 88.18,-12.17 27.8,-8.44 51.02,-19.43 69.27,-33.03 42.06,-31.92 62.93,-76.27 62.93,-132.86 0,-6.34 -0.85,-15.96 -2.62,-28.71 h 412.11 z m 2242.18,371.75 h -483.15 l -140.9,-250.54 h -881.58 l -130.24,250.54 h -470.91 l 777.77,-1407.64 h 554.12 z m -789.68,-546.34 -276.63,-520.23 -287.36,520.23 z m 2598.36,546.34 h -424.27 v -250.54 c 0,-37.41 -16.49,-68.74 -49.26,-94.52 -24.66,-18.31 -53.37,-27.28 -86.15,-27.28 h -706.4 v 372.34 l -417.6,-1.44 v -1406.2 h 1263.46 c 63.85,0 115.46,3.8 154.58,11.65 39.44,7.78 79.15,26.36 119.18,55.34 97.73,71.36 146.46,169.09 146.46,293.51 v 205.33 c 0,50.44 -5.82,93.09 -17.66,128.15 -11.91,35.06 -34.28,64.1 -67.05,87 -24.59,16.55 -58.54,33.03 -101.46,49.32 -36.56,13.6 -59.19,20.54 -68.42,20.54 18.25,0 48.41,9.61 90.47,28.72 53.9,24.66 92.23,53.05 114.8,84.97 19.17,27.27 32.18,53.96 39.18,80.06 6.67,25.78 10.14,57.11 10.14,93.68 z m -406.54,-833.7 v -104.4 c 0,-25.84 -1.77,-45.85 -5.56,-60.64 -3.47,-14.45 -12.17,-29.3 -25.78,-43.76 -13.93,-14.78 -29.3,-24.07 -46.7,-28.45 -17.4,-4.06 -39.12,-6.09 -65.55,-6.09 h -715.95 v 374.1 h 692.47 c 40.29,0 67.57,-2.61 82.36,-7.52 14.52,-4.97 28.97,-14.78 43.82,-29.56 27.21,-26.69 40.89,-57.77 40.89,-93.68 z m 2127.31,833.7 h -1541.27 v -1407.64 h 1514.06 v 328.9 h -1088.35 v 236.6 h 1034.97 v 276.64 h -1030.92 v 234.9 h 1111.51 z"
   id="path4" />&#10;   <path
   class="fil2"
   d="m 8833.46,15452.58 v 48.73 c 0,56.84 -3.47,97.33 -10.47,121.47 -10.47,34.93 -32.9,66.2 -67.51,93.67 -27.93,21.92 -63.64,38.53 -107.14,49.85 -43.31,11.25 -90.34,16.81 -140.77,16.81 h -684.23 v -770.57 h 699.14 c 29.04,0 61.75,3.2 98.25,9.68 52.4,9.55 91.58,22.9 117.61,39.84 38.93,25.44 65.88,61.16 80.99,107.14 10,30.49 14.91,67.51 14.91,111.01 0,7.46 -0.13,14.59 -0.33,21.26 -0.32,6.8 -0.45,12.89 -0.45,18.45 z m -239.74,42.91 v -201.35 c 0,-16.48 -2.36,-31.07 -7.13,-43.95 -4.78,-12.69 -12.7,-23.81 -23.95,-33.36 -11.31,-9.49 -23.81,-15.83 -37.94,-18.84 -13.99,-3.01 -31.13,-4.45 -51.61,-4.45 h -410.01 l -0.65,408.57 h 412.1 c 36.5,0 64.89,-7.78 85.43,-23.29 12.5,-9.55 21.26,-20.99 26.3,-34.47 4.97,-13.67 7.46,-29.83 7.46,-48.86 z m 1748.17,287.62 h -843.77 v -770.57 h 828.86 v 180.02 h -595.79 v 129.52 h 566.55 v 151.49 h -564.32 v 128.54 h 608.47 z m 1549.52,-589.57 h -337.99 v 589.57 h -238.24 v -589.57 h -333.54 v -181 h 909.77 z m 1563.84,589.57 h -264.47 l -77.18,-137.17 h -482.56 l -71.3,137.17 h -257.8 l 425.78,-770.57 h 303.32 z m -432.25,-299.07 -151.5,-284.81 -157.32,284.81 z m 1333.13,299.07 h -244.91 v -770.57 h 244.91 z m 1489.72,0 h -801.83 v -770.57 h 225.61 v 589.57 h 576.22 z m 902.91,0 h -244.91 v -770.57 h 244.91 z m 1732.61,0 h -358.27 l -445.93,-556.73 v 556.73 h -240.52 v -770.57 h 365.72 l 451.03,564.52 v -564.52 h 227.97 z m 1636.71,-203.96 c 0,39.97 -5.43,71.69 -15.9,95.24 -12.88,28.39 -36.17,53.18 -69.66,74.12 -21.92,14 -54.29,23.68 -97.01,29.17 -42.72,5.56 -90.53,8.31 -143.52,8.31 H 19454 c -52.4,0 -94.91,-4.32 -127.49,-12.69 -38.4,-10.01 -76.14,-28.78 -112.97,-56.26 -30.48,-22.96 -50.96,-65.54 -61.62,-127.42 -5.43,-33.04 -8.11,-80.2 -8.11,-141.62 v -128.08 c 0,-70.98 7.46,-127.82 22.37,-170.21 13.02,-37.02 33.23,-65.74 60.38,-86.21 27.28,-20.48 69.79,-34.93 127.75,-43.5 34.93,-4.91 73,-7.46 114.02,-7.46 h 370.17 c 22.37,0 50.63,2.22 84.58,6.67 50.5,6.54 84.52,15.9 101.98,27.8 34.87,23.49 59,49.19 71.89,77.12 11.12,24.01 16.48,56.98 16.48,98.91 v 49.52 h -225.54 c 1.11,-9.03 1.57,-15.05 1.57,-18.06 0,-15.56 -7.33,-28.58 -21.72,-39.05 -9.55,-7.19 -23.68,-12.56 -42.39,-16.22 -18.77,-3.79 -38.92,-5.69 -60.37,-5.69 h -245.11 c -7.91,0 -14.58,0 -20.15,0 -16.02,0 -30.48,0.91 -43.5,3.01 -13.01,1.89 -24.46,6.15 -34.4,12.69 -28,18.58 -41.93,45.07 -41.93,79.54 v 183.68 c 0,22.5 1.76,40.62 5.23,54.3 3.47,13.8 11.12,27.6 23.16,41.53 7.45,9.1 21.13,17.01 40.81,23.68 19.83,6.81 36.37,10.14 49.85,10.14 h 296.85 c 19.36,0 35.39,-2.22 47.94,-6.67 12.37,-4.38 23.68,-12.36 33.69,-23.81 6.94,-9.03 12.17,-17.92 15.7,-26.82 3.47,-8.9 5.24,-19.69 5.24,-32.05 0,-7 -0.2,-12.37 -0.66,-16.36 h -296.85 v -160 h 517.23 z"
   id="path5" />&#10;  </g>&#10; </g></g></g></svg>
