<svg width="380" height="977" viewBox="0 0 380 977" fill="none" xmlns="http://www.w3.org/2000/svg">
<path d="M257.643 138.47L238.893 170.946H201.393L182.643 138.47L201.393 105.994H238.893L257.643 138.47Z" fill="url(#paint0_linear_2_3)" fill-opacity="0.1"/>
<path d="M196.643 171.47L177.893 203.946H140.393L121.643 171.47L140.393 138.994H177.893L196.643 171.47Z" fill="url(#paint1_linear_2_3)" fill-opacity="0.18"/>
<path d="M196.643 382.47L177.893 414.946H140.393L121.643 382.47L140.393 349.994H177.893L196.643 382.47Z" fill="url(#paint2_linear_2_3)" fill-opacity="0.12"/>
<path d="M317.643 312.47L298.893 344.946H261.393L242.643 312.47L261.393 279.994H298.893L317.643 312.47Z" fill="url(#paint3_linear_2_3)" fill-opacity="0.27"/>
<path d="M136.643 565.47L117.893 597.946H80.3929L61.6429 565.47L80.3929 532.994H117.893L136.643 565.47Z" fill="url(#paint4_linear_2_3)" fill-opacity="0.15"/>
<path d="M136.643 840.47L117.893 872.946H80.3929L61.6429 840.47L80.3929 807.994H117.893L136.643 840.47Z" fill="url(#paint5_linear_2_3)" fill-opacity="0.35"/>
<path d="M317.643 666.47L298.893 698.946H261.393L242.643 666.47L261.393 633.994H298.893L317.643 666.47Z" fill="url(#paint6_linear_2_3)" fill-opacity="0.22"/>
<path d="M257.643 771.47L238.893 803.946H201.393L182.643 771.47L201.393 738.994H238.893L257.643 771.47Z" fill="url(#paint7_linear_2_3)" fill-opacity="0.35"/>
<path d="M77.6429 172.47L58.8929 204.946H21.3929L2.64288 172.47L21.3929 139.994H58.8929L77.6429 172.47Z" fill="url(#paint8_linear_2_3)" fill-opacity="0.32"/>
<path d="M256.643 842.47L237.893 874.946H200.393L181.643 842.47L200.393 809.994H237.893L256.643 842.47Z" fill="url(#paint9_linear_2_3)" fill-opacity="0.25"/>
<path d="M196.643 528.47L177.893 560.946H140.393L121.643 528.47L140.393 495.994H177.893L196.643 528.47Z" fill="url(#paint10_linear_2_3)" fill-opacity="0.32"/>
<path d="M136.643 69.4703L117.893 101.946H80.3929L61.6429 69.4703L80.3929 36.9943H117.893L136.643 69.4703Z" fill="url(#paint11_linear_2_3)" fill-opacity="0.28"/>
<path d="M297.449 71.4943L314.756 101.47L297.449 131.446H262.836L245.53 101.47L262.836 71.4943H297.449Z" stroke="url(#paint12_linear_2_3)" stroke-opacity="0.3" stroke-width="5"/>
<path d="M236.45 177.494L253.756 207.47L236.45 237.446H201.836L184.53 207.47L201.836 177.494H236.45Z" stroke="url(#paint13_linear_2_3)" stroke-opacity="0.22" stroke-width="5"/>
<path d="M236.45 247.494L253.756 277.47L236.45 307.446H201.836L184.53 277.47L201.836 247.494H236.45Z" stroke="url(#paint14_linear_2_3)" stroke-opacity="0.4" stroke-width="5"/>
<path d="M176.45 282.494L193.756 312.47L176.45 342.446H141.836L124.53 312.47L141.836 282.494H176.45Z" stroke="url(#paint15_linear_2_3)" stroke-opacity="0.12" stroke-width="5"/>
<path d="M236.45 392.494L253.756 422.47L236.45 452.446H201.836L184.53 422.47L201.836 392.494H236.45Z" stroke="url(#paint16_linear_2_3)" stroke-opacity="0.18" stroke-width="5"/>
<path d="M236.45 461.494L253.756 491.47L236.45 521.446H201.836L184.53 491.47L201.836 461.494H236.45Z" stroke="url(#paint17_linear_2_3)" stroke-opacity="0.4" stroke-width="5"/>
<path d="M297.449 427.494L314.756 457.47L297.449 487.446H262.836L245.53 457.47L262.836 427.494H297.449Z" stroke="url(#paint18_linear_2_3)" stroke-opacity="0.25" stroke-width="5"/>
<path d="M115.45 247.494L132.756 277.47L115.45 307.446H80.8359L63.5299 277.47L80.8359 247.494H115.45Z" stroke="url(#paint19_linear_2_3)" stroke-opacity="0.4" stroke-width="5"/>
<path d="M115.45 247.494L132.756 277.47L115.45 307.446H80.8359L63.5299 277.47L80.8359 247.494H115.45Z" stroke="url(#paint20_linear_2_3)" stroke-opacity="0.17" stroke-width="5"/>
<path d="M57.4499 71.4943L74.7559 101.47L57.4499 131.446H22.8359L5.52988 101.47L22.8359 71.4943H57.4499Z" stroke="url(#paint21_linear_2_3)" stroke-opacity="0.14" stroke-width="5"/>
<path d="M176.45 775.494L193.756 805.47L176.45 835.446H141.836L124.53 805.47L141.836 775.494H176.45Z" stroke="url(#paint22_linear_2_3)" stroke-opacity="0.1" stroke-width="5"/>
<path d="M236.45 604.494L253.756 634.47L236.45 664.446H201.836L184.53 634.47L201.836 604.494H236.45Z" stroke="url(#paint23_linear_2_3)" stroke-opacity="0.1" stroke-width="5"/>
<path d="M237.45 673.494L254.756 703.47L237.45 733.446H202.836L185.53 703.47L202.836 673.494H237.45Z" stroke="url(#paint24_linear_2_3)" stroke-opacity="0.3" stroke-width="5"/>
<path d="M176.45 642.494L193.756 672.47L176.45 702.446H141.836L124.53 672.47L141.836 642.494H176.45Z" stroke="url(#paint25_linear_2_3)" stroke-opacity="0.15" stroke-width="5"/>
<path d="M55.4499 498.494L72.7559 528.47L55.4499 558.446H20.8359L3.52988 528.47L20.8359 498.494H55.4499Z" stroke="url(#paint26_linear_2_3)" stroke-opacity="0.18" stroke-width="5"/>
<path d="M297.449 778.494L314.756 808.47L297.449 838.446H262.836L245.53 808.47L262.836 778.494H297.449Z" stroke="url(#paint27_linear_2_3)" stroke-opacity="0.2" stroke-width="5"/>
<path d="M297.449 847.494L314.756 877.47L297.449 907.446H262.836L245.53 877.47L262.836 847.494H297.449Z" stroke="url(#paint28_linear_2_3)" stroke-opacity="0.35" stroke-width="5"/>
<path d="M116.45 878.494L133.756 908.47L116.45 938.446H81.8359L64.5299 908.47L81.8359 878.494H116.45Z" stroke="url(#paint29_linear_2_3)" stroke-opacity="0.3" stroke-width="5"/>
<path d="M174.45 914.494L191.756 944.47L174.45 974.446H139.836L122.53 944.47L139.836 914.494H174.45Z" stroke="url(#paint30_linear_2_3)" stroke-opacity="0.2" stroke-width="5"/>
<path d="M359.449 809.494L376.756 839.47L359.449 869.446H324.836L307.53 839.47L324.836 809.494H359.449Z" stroke="url(#paint31_linear_2_3)" stroke-opacity="0.15" stroke-width="5"/>
<path d="M176.45 568.494L193.756 598.47L176.45 628.446H141.836L124.53 598.47L141.836 568.494H176.45Z" stroke="url(#paint32_linear_2_3)" stroke-opacity="0.25" stroke-width="5"/>
<path d="M115.45 466.494L132.756 496.47L115.45 526.446H80.8359L63.5299 496.47L80.8359 466.494H115.45Z" stroke="url(#paint33_linear_2_3)" stroke-opacity="0.1" stroke-width="5"/>
<path d="M174.45 2.49432L191.756 32.4703L174.45 62.4463H139.836L122.53 32.4703L139.836 2.49432H174.45Z" stroke="url(#paint34_linear_2_3)" stroke-opacity="0.35" stroke-width="5"/>
<path d="M116.45 107.494L133.756 137.47L116.45 167.446H81.8359L64.5299 137.47L81.8359 107.494H116.45Z" stroke="url(#paint35_linear_2_3)" stroke-opacity="0.28" stroke-width="5"/>
<defs>
<linearGradient id="paint0_linear_2_3" x1="266.643" y1="175.97" x2="174.643" y2="100.97" gradientUnits="userSpaceOnUse">
<stop stop-color="#DFBE6A" stop-opacity="0.87451"/>
<stop offset="0.489318" stop-color="#926F34" stop-opacity="0.83"/>
<stop offset="0.95" stop-color="#DFBE6A"/>
</linearGradient>
<linearGradient id="paint1_linear_2_3" x1="205.643" y1="208.97" x2="113.643" y2="133.97" gradientUnits="userSpaceOnUse">
<stop stop-color="#DFBE6A" stop-opacity="0.87451"/>
<stop offset="0.489318" stop-color="#926F34" stop-opacity="0.83"/>
<stop offset="0.95" stop-color="#DFBE6A"/>
</linearGradient>
<linearGradient id="paint2_linear_2_3" x1="205.643" y1="419.97" x2="113.643" y2="344.97" gradientUnits="userSpaceOnUse">
<stop stop-color="#DFBE6A" stop-opacity="0.87451"/>
<stop offset="0.489318" stop-color="#926F34" stop-opacity="0.83"/>
<stop offset="0.95" stop-color="#DFBE6A"/>
</linearGradient>
<linearGradient id="paint3_linear_2_3" x1="326.643" y1="349.97" x2="234.643" y2="274.97" gradientUnits="userSpaceOnUse">
<stop stop-color="#DFBE6A" stop-opacity="0.87451"/>
<stop offset="0.489318" stop-color="#926F34" stop-opacity="0.83"/>
<stop offset="0.95" stop-color="#DFBE6A"/>
</linearGradient>
<linearGradient id="paint4_linear_2_3" x1="145.643" y1="602.97" x2="53.6429" y2="527.97" gradientUnits="userSpaceOnUse">
<stop stop-color="#DFBE6A" stop-opacity="0.87451"/>
<stop offset="0.489318" stop-color="#926F34" stop-opacity="0.83"/>
<stop offset="0.95" stop-color="#DFBE6A"/>
</linearGradient>
<linearGradient id="paint5_linear_2_3" x1="145.643" y1="877.97" x2="53.6429" y2="802.97" gradientUnits="userSpaceOnUse">
<stop stop-color="#DFBE6A" stop-opacity="0.87451"/>
<stop offset="0.489318" stop-color="#926F34" stop-opacity="0.83"/>
<stop offset="0.95" stop-color="#DFBE6A"/>
</linearGradient>
<linearGradient id="paint6_linear_2_3" x1="326.643" y1="703.97" x2="234.643" y2="628.97" gradientUnits="userSpaceOnUse">
<stop stop-color="#DFBE6A" stop-opacity="0.87451"/>
<stop offset="0.489318" stop-color="#926F34" stop-opacity="0.83"/>
<stop offset="0.95" stop-color="#DFBE6A"/>
</linearGradient>
<linearGradient id="paint7_linear_2_3" x1="266.643" y1="808.97" x2="174.643" y2="733.97" gradientUnits="userSpaceOnUse">
<stop stop-color="#DFBE6A" stop-opacity="0.87451"/>
<stop offset="0.489318" stop-color="#926F34" stop-opacity="0.83"/>
<stop offset="0.95" stop-color="#DFBE6A"/>
</linearGradient>
<linearGradient id="paint8_linear_2_3" x1="86.6429" y1="209.97" x2="-5.35711" y2="134.97" gradientUnits="userSpaceOnUse">
<stop stop-color="#DFBE6A" stop-opacity="0.87451"/>
<stop offset="0.489318" stop-color="#926F34" stop-opacity="0.83"/>
<stop offset="0.95" stop-color="#DFBE6A"/>
</linearGradient>
<linearGradient id="paint9_linear_2_3" x1="265.643" y1="879.97" x2="173.643" y2="804.97" gradientUnits="userSpaceOnUse">
<stop stop-color="#DFBE6A" stop-opacity="0.87451"/>
<stop offset="0.489318" stop-color="#926F34" stop-opacity="0.83"/>
<stop offset="0.95" stop-color="#DFBE6A"/>
</linearGradient>
<linearGradient id="paint10_linear_2_3" x1="205.643" y1="565.97" x2="113.643" y2="490.97" gradientUnits="userSpaceOnUse">
<stop stop-color="#DFBE6A" stop-opacity="0.87451"/>
<stop offset="0.489318" stop-color="#926F34" stop-opacity="0.83"/>
<stop offset="0.95" stop-color="#DFBE6A"/>
</linearGradient>
<linearGradient id="paint11_linear_2_3" x1="145.643" y1="106.97" x2="53.6429" y2="31.9703" gradientUnits="userSpaceOnUse">
<stop stop-color="#DFBE6A" stop-opacity="0.87451"/>
<stop offset="0.489318" stop-color="#926F34" stop-opacity="0.83"/>
<stop offset="0.95" stop-color="#DFBE6A"/>
</linearGradient>
<linearGradient id="paint12_linear_2_3" x1="317.643" y1="101.47" x2="242.643" y2="101.47" gradientUnits="userSpaceOnUse">
<stop stop-color="#926F34"/>
<stop offset="0.5" stop-color="#DFBE6A"/>
<stop offset="1" stop-color="#926F34"/>
</linearGradient>
<linearGradient id="paint13_linear_2_3" x1="256.643" y1="207.47" x2="181.643" y2="207.47" gradientUnits="userSpaceOnUse">
<stop stop-color="#926F34"/>
<stop offset="0.5" stop-color="#DFBE6A"/>
<stop offset="1" stop-color="#926F34"/>
</linearGradient>
<linearGradient id="paint14_linear_2_3" x1="256.643" y1="277.47" x2="181.643" y2="277.47" gradientUnits="userSpaceOnUse">
<stop stop-color="#926F34"/>
<stop offset="0.5" stop-color="#DFBE6A"/>
<stop offset="1" stop-color="#926F34"/>
</linearGradient>
<linearGradient id="paint15_linear_2_3" x1="196.643" y1="312.47" x2="121.643" y2="312.47" gradientUnits="userSpaceOnUse">
<stop stop-color="#926F34"/>
<stop offset="0.5" stop-color="#DFBE6A"/>
<stop offset="1" stop-color="#926F34"/>
</linearGradient>
<linearGradient id="paint16_linear_2_3" x1="256.643" y1="422.47" x2="181.643" y2="422.47" gradientUnits="userSpaceOnUse">
<stop stop-color="#926F34"/>
<stop offset="0.5" stop-color="#DFBE6A"/>
<stop offset="1" stop-color="#926F34"/>
</linearGradient>
<linearGradient id="paint17_linear_2_3" x1="256.643" y1="491.47" x2="181.643" y2="491.47" gradientUnits="userSpaceOnUse">
<stop stop-color="#926F34"/>
<stop offset="0.5" stop-color="#DFBE6A"/>
<stop offset="1" stop-color="#926F34"/>
</linearGradient>
<linearGradient id="paint18_linear_2_3" x1="317.643" y1="457.47" x2="242.643" y2="457.47" gradientUnits="userSpaceOnUse">
<stop stop-color="#926F34"/>
<stop offset="0.5" stop-color="#DFBE6A"/>
<stop offset="1" stop-color="#926F34"/>
</linearGradient>
<linearGradient id="paint19_linear_2_3" x1="135.643" y1="277.47" x2="60.6429" y2="277.47" gradientUnits="userSpaceOnUse">
<stop stop-color="#926F34"/>
<stop offset="0.5" stop-color="#DFBE6A"/>
<stop offset="1" stop-color="#926F34"/>
</linearGradient>
<linearGradient id="paint20_linear_2_3" x1="135.643" y1="277.47" x2="60.6429" y2="277.47" gradientUnits="userSpaceOnUse">
<stop stop-color="#926F34"/>
<stop offset="0.5" stop-color="#DFBE6A"/>
<stop offset="1" stop-color="#926F34"/>
</linearGradient>
<linearGradient id="paint21_linear_2_3" x1="77.6429" y1="101.47" x2="2.64288" y2="101.47" gradientUnits="userSpaceOnUse">
<stop stop-color="#926F34"/>
<stop offset="0.5" stop-color="#DFBE6A"/>
<stop offset="1" stop-color="#926F34"/>
</linearGradient>
<linearGradient id="paint22_linear_2_3" x1="196.643" y1="805.47" x2="121.643" y2="805.47" gradientUnits="userSpaceOnUse">
<stop stop-color="#926F34"/>
<stop offset="0.5" stop-color="#DFBE6A"/>
<stop offset="1" stop-color="#926F34"/>
</linearGradient>
<linearGradient id="paint23_linear_2_3" x1="256.643" y1="634.47" x2="181.643" y2="634.47" gradientUnits="userSpaceOnUse">
<stop stop-color="#926F34"/>
<stop offset="0.5" stop-color="#DFBE6A"/>
<stop offset="1" stop-color="#926F34"/>
</linearGradient>
<linearGradient id="paint24_linear_2_3" x1="257.643" y1="703.47" x2="182.643" y2="703.47" gradientUnits="userSpaceOnUse">
<stop stop-color="#926F34"/>
<stop offset="0.5" stop-color="#DFBE6A"/>
<stop offset="1" stop-color="#926F34"/>
</linearGradient>
<linearGradient id="paint25_linear_2_3" x1="196.643" y1="672.47" x2="121.643" y2="672.47" gradientUnits="userSpaceOnUse">
<stop stop-color="#926F34"/>
<stop offset="0.5" stop-color="#DFBE6A"/>
<stop offset="1" stop-color="#926F34"/>
</linearGradient>
<linearGradient id="paint26_linear_2_3" x1="75.6429" y1="528.47" x2="0.642876" y2="528.47" gradientUnits="userSpaceOnUse">
<stop stop-color="#926F34"/>
<stop offset="0.5" stop-color="#DFBE6A"/>
<stop offset="1" stop-color="#926F34"/>
</linearGradient>
<linearGradient id="paint27_linear_2_3" x1="317.643" y1="808.47" x2="242.643" y2="808.47" gradientUnits="userSpaceOnUse">
<stop stop-color="#926F34"/>
<stop offset="0.5" stop-color="#DFBE6A"/>
<stop offset="1" stop-color="#926F34"/>
</linearGradient>
<linearGradient id="paint28_linear_2_3" x1="317.643" y1="877.47" x2="242.643" y2="877.47" gradientUnits="userSpaceOnUse">
<stop stop-color="#926F34"/>
<stop offset="0.5" stop-color="#DFBE6A"/>
<stop offset="1" stop-color="#926F34"/>
</linearGradient>
<linearGradient id="paint29_linear_2_3" x1="136.643" y1="908.47" x2="61.6429" y2="908.47" gradientUnits="userSpaceOnUse">
<stop stop-color="#926F34"/>
<stop offset="0.5" stop-color="#DFBE6A"/>
<stop offset="1" stop-color="#926F34"/>
</linearGradient>
<linearGradient id="paint30_linear_2_3" x1="194.643" y1="944.47" x2="119.643" y2="944.47" gradientUnits="userSpaceOnUse">
<stop stop-color="#926F34"/>
<stop offset="0.5" stop-color="#DFBE6A"/>
<stop offset="1" stop-color="#926F34"/>
</linearGradient>
<linearGradient id="paint31_linear_2_3" x1="379.643" y1="839.47" x2="304.643" y2="839.47" gradientUnits="userSpaceOnUse">
<stop stop-color="#926F34"/>
<stop offset="0.5" stop-color="#DFBE6A"/>
<stop offset="1" stop-color="#926F34"/>
</linearGradient>
<linearGradient id="paint32_linear_2_3" x1="196.643" y1="598.47" x2="121.643" y2="598.47" gradientUnits="userSpaceOnUse">
<stop stop-color="#926F34"/>
<stop offset="0.5" stop-color="#DFBE6A"/>
<stop offset="1" stop-color="#926F34"/>
</linearGradient>
<linearGradient id="paint33_linear_2_3" x1="135.643" y1="496.47" x2="60.6429" y2="496.47" gradientUnits="userSpaceOnUse">
<stop stop-color="#926F34"/>
<stop offset="0.5" stop-color="#DFBE6A"/>
<stop offset="1" stop-color="#926F34"/>
</linearGradient>
<linearGradient id="paint34_linear_2_3" x1="194.643" y1="32.4703" x2="119.643" y2="32.4703" gradientUnits="userSpaceOnUse">
<stop stop-color="#926F34"/>
<stop offset="0.5" stop-color="#DFBE6A"/>
<stop offset="1" stop-color="#926F34"/>
</linearGradient>
<linearGradient id="paint35_linear_2_3" x1="136.643" y1="137.47" x2="61.6429" y2="137.47" gradientUnits="userSpaceOnUse">
<stop stop-color="#926F34"/>
<stop offset="0.5" stop-color="#DFBE6A"/>
<stop offset="1" stop-color="#926F34"/>
</linearGradient>
</defs>
</svg>
